#!OML:ASF H:\MichaelJackson\Top Level 1\Subject 1\Session 1\male.ASF
:FULLY-SPECIFIED
:DEGREES
704
root -0.113721 11.5597 20.9811 -107.026 80.4189 -131.542
lowerback 31.1565 -0.91707 -4.1589
upperback 10.0036 -1.73652 -11.0362
thorax -5.56859 -0.0800426 -8.95891
lowerneck -5.51064 -12.7795 -13.6692
upperneck -7.36801 -16.0837 14.7095
head 1.04146 -7.76245 5.87671
rclavicle -9.54166e-015 4.6118e-014
rhumerus -52.3838 38.1617 -79.5528
rradius 71.0959
rwrist -20.4379
rhand -37.9902 -39.9995
rfingers 7.12502
rthumb -11.0298 290.31
lclavicle -9.54166e-015 4.6118e-014
lhumerus -25.4715 21.6214 47.989
lradius 64.326
lwrist 29.2677
lhand -36.3608 -1.73432
lfingers 7.12502
lthumb -9.45796 28.0335
rfemur -76.987 -41.2153 12.346
rtibia 88.2734
rfoot -27.0151 -1.21292
rtoes -49.2272
lfemur -43.976 16.7341 38.9842
ltibia 30.9449
lfoot -10.4009 -1.37709
ltoes -37.0225
705
root -0.144434 11.5299 21.062 -104.392 81.1578 -128.875
lowerback 31.2129 -1.15521 -4.18557
upperback 10.103 -2.04326 -11.1312
thorax -5.52765 -0.222996 -8.94349
lowerneck -5.65689 -12.4501 -13.5689
upperneck -7.28705 -15.621 14.2707
head 0.976119 -7.52663 5.76827
rclavicle -3.49861e-014 -6.20208e-014
rhumerus -52.0416 39.1439 -78.5884
rradius 72.5621
rwrist -21.0267
rhand -37.604 -40.4636
rfingers 7.12502
rthumb -10.6573 289.827
lclavicle -3.49861e-014 -6.20208e-014
lhumerus -26.153 21.9759 47.6282
lradius 63.7473
lwrist 29.0148
lhand -36.4267 -1.37603
lfingers 7.12502
lthumb -9.5215 28.3888
rfemur -78.3862 -41.3926 12.9508
rtibia 88.955
rfoot -27.483 -0.390068
rtoes -49.1484
lfemur -42.8453 16.2558 39.2403
ltibia 30.2131
lfoot -9.76318 -0.519256
ltoes -36.9974
706
root -0.174158 11.5014 21.1418 -101.494 81.8688 -125.911
lowerback 31.2934 -1.39481 -4.23404
upperback 10.2092 -2.35684 -11.2103
thorax -5.48718 -0.368935 -8.89617
lowerneck -5.803 -12.117 -13.4861
upperneck -7.18622 -15.155 13.8124
head 0.918115 -7.28891 5.65449
rclavicle -2.8625e-014 -3.18055e-015
rhumerus -51.629 40.1717 -77.5537
rradius 74.0825
rwrist -21.6898
rhand -37.2342 -40.9061
rfingers 7.12502
rthumb -10.3006 289.366
lclavicle -2.8625e-014 -3.18055e-015
lhumerus -26.8265 22.3741 47.3049
lradius 63.1627
lwrist 28.792
lhand -36.4526 -0.990099
lfingers 7.12502
lthumb -9.5465 28.7736
rfemur -79.7282 -41.5985 13.5487
rtibia 89.6118
rfoot -27.9341 0.48408
rtoes -49.0421
lfemur -41.7273 15.7117 39.4661
ltibia 29.4933
lfoot -9.14085 0.366051
ltoes -36.9849
707
root -0.203107 11.4739 21.2203 -98.2304 82.542 -122.55
lowerback 31.4039 -1.62616 -4.30139
upperback 10.3171 -2.66552 -11.2602
thorax -5.45184 -0.512939 -8.80774
lowerneck -5.95071 -11.7875 -13.4095
upperneck -7.06418 -14.6952 13.3029
head 0.865584 -7.05399 5.52353
rclavicle 2.8625e-014 7.4743e-014
rhumerus -51.1557 41.1845 -76.4229
rradius 75.6353
rwrist -22.3468
rhand -36.8608 -41.2169
rfingers 7.12502
rthumb -9.94035 289.038
lclavicle 2.8625e-014 7.4743e-014
lhumerus -27.4943 22.8054 47.0377
lradius 62.5786
lwrist 28.6516
lhand -36.46 -0.586737
lfingers 7.12502
lthumb -9.55365 29.1767
rfemur -81.0192 -41.824 14.1514
rtibia 90.2475
rfoot -28.3549 1.39135
rtoes -48.9183
lfemur -40.6236 15.125 39.6591
ltibia 28.782
lfoot -8.53394 1.26267
ltoes -36.9619
708
root -0.231327 11.4474 21.2974 -94.4625 83.1694 -118.654
lowerback 31.5423 -1.84517 -4.37198
upperback 10.427 -2.95968 -11.2786
thorax -5.41967 -0.650498 -8.68748
lowerneck -6.08694 -11.4677 -13.3461
upperneck -6.94554 -14.2495 12.7567
head 0.81239 -6.826 5.38171
rclavicle -6.36111e-015 0
rhumerus -50.6249 42.1295 -75.1738
rradius 77.2034
rwrist -22.9579
rhand -36.4649 -41.3039
rfingers 7.12502
rthumb -9.55834 288.933
lclavicle -6.36111e-015 0
lhumerus -28.1403 23.2553 46.8374
lradius 61.9922
lwrist 28.6483
lhand -36.4645 -0.240939
lfingers 7.12502
lthumb -9.55799 29.5223
rfemur -82.2568 -42.0459 14.7563
rtibia 90.862
rfoot -28.7208 2.29784
rtoes -48.7748
lfemur -39.5199 14.4801 39.8458
ltibia 28.0737
lfoot -7.93592 2.1736
ltoes -36.9281
709
root -0.258848 11.4215 21.3729 -89.953 83.7351 -114
lowerback 31.7025 -2.04252 -4.44247
upperback 10.5326 -3.22784 -11.2598
thorax -5.39284 -0.776838 -8.53502
lowerneck -6.22611 -11.1623 -13.2859
upperneck -6.82813 -13.823 12.1759
head 0.761672 -6.60725 5.22699
rclavicle 4.13472e-014 -1.43125e-014
rhumerus -50.0569 42.975 -73.8089
rradius 78.7668
rwrist -23.4829
rhand -36.05 -41.1041
rfingers 7.12502
rthumb -9.15808 289.115
lclavicle 4.13472e-014 -1.43125e-014
lhumerus -28.7527 23.7198 46.7117
lradius 61.3998
lwrist 28.7822
lhand -36.4735 0.0244733
lfingers 7.12502
lthumb -9.56667 29.7873
rfemur -83.4637 -42.2408 15.3863
rtibia 91.4592
rfoot -29.0153 3.16932
rtoes -48.6195
lfemur -38.4077 13.7969 40.04
ltibia 27.3615
lfoot -7.33357 3.09561
ltoes -36.887
710
root -0.285562 11.3961 21.447 -84.5177 84.2299 -108.42
lowerback 31.8684 -2.22091 -4.51731
upperback 10.6202 -3.47748 -11.2176
thorax -5.38156 -0.896153 -8.36062
lowerneck -6.3471 -10.8605 -13.1965
upperneck -6.71554 -13.4064 11.5715
head 0.707095 -6.39509 5.06002
rclavicle -3.49861e-014 -1.59028e-014
rhumerus -49.494 43.7226 -72.4007
rradius 80.3024
rwrist -23.8754
rhand -35.6284 -40.6716
rfingers 7.12502
rthumb -8.75119 289.53
lclavicle -3.49861e-014 -1.59028e-014
lhumerus -29.3528 24.1915 46.6156
lradius 60.8029
lwrist 29.0203
lhand -36.4927 0.190559
lfingers 7.12502
lthumb -9.58521 29.9525
rfemur -84.6574 -42.3923 16.044
rtibia 92.0401
rfoot -29.2267 3.98494
rtoes -48.4516
lfemur -37.286 13.087 40.2442
ltibia 26.6378
lfoot -6.71112 4.02724
ltoes -36.8319
711
root -0.311281 11.3709 21.5195 -77.9795 84.6453 -101.753
lowerback 32.0277 -2.38078 -4.58667
upperback 10.6899 -3.70591 -11.1629
thorax -5.38242 -1.0069 -8.18263
lowerneck -6.48191 -10.5711 -13.077
upperneck -6.59319 -13.0081 10.96
head 0.66049 -6.19299 4.8827
rclavicle -3.81667e-014 -1.43125e-014
rhumerus -48.968 44.3772 -70.9807
rradius 81.8153
rwrist -24.132
rhand -35.2251 -40.1305
rfingers 7.12502
rthumb -8.36205 290.055
lclavicle -3.81667e-014 -1.43125e-014
lhumerus -29.9207 24.6715 46.5439
lradius 60.2026
lwrist 29.3072
lhand -36.4992 0.287043
lfingers 7.12502
lthumb -9.59145 30.0487
rfemur -85.855 -42.4882 16.7267
rtibia 92.6066
rfoot -29.3606 4.71346
rtoes -48.2852
lfemur -36.1547 12.3534 40.4585
ltibia 25.9022
lfoot -6.05598 4.97671
ltoes -36.7503
712
root -0.335839 11.3461 21.5909 -70.2422 84.9733 -93.9113
lowerback 32.1762 -2.52022 -4.6657
upperback 10.7378 -3.91576 -11.1032
thorax -5.39789 -1.11023 -8.00029
lowerneck -6.61975 -10.2853 -12.9281
upperneck -6.47801 -12.6173 10.3725
head 0.616612 -5.99604 4.70643
rclavicle 2.22639e-014 7.95139e-014
rhumerus -48.5008 44.9743 -69.585
rradius 83.3071
rwrist -24.2706
rhand -34.8652 -39.6176
rfingers 7.12502
rthumb -8.01464 290.554
lclavicle 2.22639e-014 7.95139e-014
lhumerus -30.468 25.1668 46.4762
lradius 59.6068
lwrist 29.5668
lhand -36.4673 0.352261
lfingers 7.12502
lthumb -9.56071 30.1153
rfemur -87.0558 -42.5251 17.4148
rtibia 93.1584
rfoot -29.4308 5.35604
rtoes -48.1181
lfemur -35.0187 11.5937 40.6693
ltibia 25.1621
lfoot -5.36343 5.95
ltoes -36.646
713
root -0.359434 11.3211 21.6615 -61.4619 85.209 -85.0694
lowerback 32.2961 -2.64859 -4.75747
upperback 10.7634 -4.11873 -11.0478
thorax -5.42375 -1.21166 -7.8182
lowerneck -6.76624 -9.99978 -12.7603
upperneck -6.37222 -12.2282 9.83388
head 0.577462 -5.80108 4.54039
rclavicle 2.22639e-014 -3.18055e-014
rhumerus -48.0845 45.5669 -68.2233
rradius 84.7975
rwrist -24.3545
rhand -34.5545 -39.2623
rfingers 7.12502
rthumb -7.71475 290.898
lclavicle 2.22639e-014 -3.18055e-014
lhumerus -31.0058 25.6756 46.3951
lradius 59.0173
lwrist 29.7071
lhand -36.4095 0.401425
lfingers 7.12502
lthumb -9.50491 30.1671
rfemur -88.2864 -42.5219 18.1062
rtibia 93.6985
rfoot -29.4519 5.92517
rtoes -47.9477
lfemur -33.9103 10.8221 40.8551
ltibia 24.4262
lfoot -4.63559 6.94142
ltoes -36.5264
714
root -0.381456 11.2966 21.7313 -51.7797 85.3451 -75.3539
lowerback 32.3941 -2.76127 -4.84583
upperback 10.7788 -4.30213 -11.0168
thorax -5.45216 -1.30331 -7.67143
lowerneck -6.91215 -9.72285 -12.5662
upperneck -6.28875 -11.8534 9.36913
head 0.54021 -5.6147 4.39094
rclavicle 2.22639e-014 2.8625e-014
rhumerus -47.7405 46.1148 -66.9426
rradius 86.2778
rwrist -24.4303
rhand -34.2976 -39.1245
rfingers 7.12502
rthumb -7.46682 291.027
lclavicle 2.22639e-014 2.8625e-014
lhumerus -31.493 26.1665 46.3039
lradius 58.431
lwrist 29.6771
lhand -36.3107 0.462718
lfingers 7.12502
lthumb -9.40959 30.2327
rfemur -89.515 -42.489 18.7667
rtibia 94.2232
rfoot -29.4499 6.43394
rtoes -47.7766
lfemur -32.8296 10.0227 40.9941
ltibia 23.7067
lfoot -3.87882 7.96798
ltoes -36.3731
715
root -0.402342 11.2727 21.8006 -41.6974 85.384 -65.2571
lowerback 32.4884 -2.86727 -4.9274
upperback 10.7859 -4.47707 -11.019
thorax -5.49123 -1.38946 -7.56722
lowerneck -7.02276 -9.44831 -12.3016
upperneck -6.25869 -11.4912 8.94679
head 0.484965 -5.43699 4.24501
rclavicle -6.36111e-015 -2.38542e-014
rhumerus -47.4707 46.6127 -65.7652
rradius 87.7548
rwrist -24.5752
rhand -34.0638 -39.2043
rfingers 7.12502
rthumb -7.24119 290.94
lclavicle -6.36111e-015 -2.38542e-014
lhumerus -31.9371 26.6098 46.1828
lradius 57.8502
lwrist 29.4704
lhand -36.2033 0.560186
lfingers 7.12502
lthumb -9.30596 30.3348
rfemur -90.725 -42.4551 19.3774
rtibia 94.7355
rfoot -29.444 6.89591
rtoes -47.6047
lfemur -31.8044 9.1972 41.0684
ltibia 23.0176
lfoot -3.11781 9.01222
ltoes -36.1848
